<svg xmlns="http://www.w3.org/2000/svg" xmlns:xlink="http://www.w3.org/1999/xlink" viewBox="0 0 336.4039 335.53419">
  <defs>
    <style>
      .a {
        fill: none;
      }

      .b, .e, .f {
        fill: #fff;
      }

      .c {
        fill: #1a1d56;
      }

      .d, .h {
        fill: #fd0;
      }

      .e, .f {
        stroke: #fff;
      }

      .f {
        stroke-width: 2px;
      }

      .g {
        clip-path: url(#a);
      }

      .h {
        stroke: #fd0;
        stroke-width: 0.5px;
      }
    </style>
    <clipPath id="a" transform="translate(-30.22325 -30.6581)">
      <rect class="a" x="128.93927" y="42.35997" width="144.64115" height="112.03581"/>
    </clipPath>
  </defs>
  <g>
    <path class="b" d="M354.16515,318.75869c-53.24211,22.1201-105.76461,29.43259-151.958,29.43359A463.10931,463.10931,0,0,1,91.54944,334.54479c-13.7099-3.4101-24.61129-6.8144-32.042-9.35051-3.7158-1.26759-6.5635-2.31739-8.4619-3.042-.9492-.36229-1.6601-.64359-2.124-.82909-.2315-.0938-.40139-.1621-.5088-.2061l-.1113-.0469-.0205-.0078-.001-.001-1.4297,3.418,1.4316-3.417-.0019-.001-1.4297,3.418,1.4316-3.417-2.8388,6.7813,2.8408-6.7803-.002-.001-2.8388,6.7813,2.8408-6.7803h0l-.5996,1.4316.831-1.3144a1.55513,1.55513,0,0,0-.2314-.1172l-.5996,1.4316.831-1.3144-.2959.4668.3262-.4463-.0303-.0205-.2959.4668.3262-.4463-.0732.0996.0752-.0977-.002-.0019-.0732.0996.0752-.0977a1.5079,1.5079,0,0,1-.2793-.3544l-.0332-.0684-.002-.00291-1.5742.57911,1.6475-.0088a1.74626,1.74626,0,0,0-.0733-.57031l-1.5742.57911,1.6475-.0088v.0488L48.22524,62.1152l-9,.0029,2.60349,8.61518C96.73894,54.1405,150.10024,48.6562,196.55824,48.6581A603.42627,603.42627,0,0,1,306.62715,58.8075c13.52629,2.5342,24.23819,5.0645,31.53319,6.9512,3.6464.9424,6.4394,1.72458,8.3017,2.2647.9317.2695,1.6299.4795,2.0869.6191.2285.0693.3965.1211.503.1543l.11321.0352.02149.0068.002.001.958-3.0118-.959,3.0118h.001l.958-3.0118-.959,3.0118,2.1016-6.5967-2.1045,6.5957.0029.001,2.1016-6.5967-2.1045,6.5957.0351.0107.0342.01078.4248-1.36918-.8564,1.1719a1.4954,1.4954,0,0,0,.4316.19728l.4248-1.36918-.8564,1.1719.0234-.0322-.0361.02048.0127.01172.0234-.0322-.0361.02048.9287-.52338-1.0186.2929a1.03794,1.03794,0,0,0,.0899.23048l.9287-.52338-1.0186.2929,2.5401-.7314h-2.63279a2.68852,2.68852,0,0,0,.09269.7314l2.5401-.7314h-2.63279l-.00881,259.38079h9l-3.45319-8.3115,3.45319,8.3115h9l.00881-259.38079a15.59052,15.59052,0,0,0-1.03521-5.5264,17.8072,17.8072,0,0,0-4.1885-6.3701,16.963,16.963,0,0,0-6.8154-4.124l.0342.0107.0351.0108c-.5869-.1749-65.9511-21.0186-158.0991-21.0323-47.8672.001-102.9795,5.6387-159.93649,22.8448l-6.3985,1.9335.002,6.6846.0811,259.28128v.04881a16.25891,16.25891,0,0,0,.9609,5.3389,19.12594,19.12594,0,0,0,3.7764,6.3271,17.653,17.653,0,0,0,6.28319,4.5479h0c.3379.1406,17.3496,7.2509,45.8789,14.3476a480.98043,480.98043,0,0,0,115.00141,14.17969c48.07619.001,103.02739-7.61429,158.86429-30.81049l5.5469-2.3047v-6.0069h-9" transform="translate(-30.22325 -30.6581)"/>
    <path class="c" d="M357.4678,327.0985c-159.84769,66.4082-312.81109,2.2949-312.81109,2.2949a9.5219,9.5219,0,0,1-5.498-7.9649s.1938-259.0693.0225-259.3774c157.9116-49.4028,312.59319-1.7539,312.59319-1.7539a8.4129,8.4129,0,0,1,5.7031,7.4233S357.9658,326.8914,357.4678,327.0985Z" transform="translate(-30.22325 -30.6581)"/>
    <rect class="d" x="36.39092" y="231.92091" width="263.62205" height="4.25197"/>
    <g>
      <path class="e" d="M71.36054,285.00869v34.26659h-4.6753V285.00869Z" transform="translate(-30.22325 -30.6581)"/>
      <path class="e" d="M109.60754,304.22649c-.2651-4.7783-.584-10.57421-.584-14.793h-.10639c-1.27491,3.9639-2.709,8.2852-4.51511,13.0127l-6.3218,16.625h-3.5059l-5.84319-16.3183c-1.70021-4.8799-3.08211-9.253-4.09041-13.3194h-.1064c-.106,4.2695-.3721,9.9639-.6904,15.1494l-.9566,14.69239H78.47815l2.49659-34.26659h5.8965l6.1094,16.5742c1.4868,4.2188,2.6562,7.9815,3.6123,11.5401h.1059c.9566-3.4571,2.231-7.2188,3.8252-11.5401l6.3745-16.5742h5.8965l2.231,34.26659h-4.5684Z" transform="translate(-30.22325 -30.6581)"/>
      <path class="e" d="M152.317,304.22649c-.2651-4.7783-.5845-10.57421-.5845-14.793h-.10639c-1.27391,3.9639-2.70851,8.2852-4.51471,13.0127l-6.3217,16.625h-3.5064l-5.8428-16.3183c-1.7002-4.8799-3.082-9.253-4.0903-13.3194h-.1064c-.107,4.2695-.3721,9.9639-.691,15.1494l-.9565,14.69239h-4.4087l2.4966-34.26659h5.8965l6.1093,16.5742c1.4869,4.2188,2.6558,7.9815,3.6123,11.5401h.106c.9565-3.4571,2.231-7.2188,3.8257-11.5401l6.374-16.5742h5.896l2.231,34.26659h-4.56789Z" transform="translate(-30.22325 -30.6581)"/>
      <path class="e" d="M178.82434,319.83389c-9.5093,0-16.0967-7.01561-16.0967-17.3877,0-10.87791,7.0127-17.9951,16.5747-17.9951,9.8277,0,16.149,7.168,16.149,17.335,0,11.7441-7.49119,18.0478-16.57419,18.0478Zm.2124-3.6094c7.3306,0,11.4751-6.457,11.4751-14.2353,0-6.8115-3.71969-13.9278-11.4223-13.9278-7.7027,0-11.52739,6.8624-11.52739,14.2842,0,7.2188,4.14409,13.8789,11.42139,13.8789Z" transform="translate(-30.22325 -30.6581)"/>
      <path class="e" d="M201.45274,285.51849a42.42611,42.42611,0,0,1,8.4468-.7608c4.6211,0,7.5967.7608,9.7735,2.4893a7.11545,7.11545,0,0,1,3.0283,6.0498c0,3.35549-2.3369,6.252-6.0567,7.5234v.1524c3.4004.76169,7.3838,3.458,7.3838,8.542a8.91339,8.91339,0,0,1-3.0801,6.8623c-2.4433,2.1865-6.4804,3.2031-12.32319,3.2031a56.02108,56.02108,0,0,1-7.17241-.4082Zm4.6216,14.0303h4.1963c4.834,0,7.7031-2.4903,7.7031-5.794,0-3.9658-3.1347-5.5928-7.8095-5.5928a20.71238,20.71238,0,0,0-4.0899.3047Zm0,16.371a26.38851,26.38851,0,0,0,3.8779.2032c4.7813,0,9.1905-1.6778,9.1905-6.6602,0-4.6269-4.1983-6.6074-9.2432-6.6074h-3.8252Z" transform="translate(-30.22325 -30.6581)"/>
      <path class="e" d="M234.86534,285.00869v34.26659h-4.6738V285.00869Z" transform="translate(-30.22325 -30.6581)"/>
      <path class="e" d="M242.88684,285.00869h4.6758v30.5537h15.2979v3.71289h-19.9737Z" transform="translate(-30.22325 -30.6581)"/>
      <path class="e" d="M272.63584,285.00869v34.26659h-4.67569V285.00869Z" transform="translate(-30.22325 -30.6581)"/>
      <path class="e" d="M299.19544,303.20989h-13.8652v12.3525h15.5107v3.71289h-20.1855V285.00869H300.044v3.7129h-14.7138v10.8272h13.8652Z" transform="translate(-30.22325 -30.6581)"/>
      <path class="e" d="M306.84394,285.51849a50.30339,50.30339,0,0,1,8.872-.7608c4.9405,0,8.1807.9131,10.4121,2.8457a8.38052,8.38052,0,0,1,2.8155,6.50589c0,4.47461-3.02839,7.47361-6.7452,8.69431v.1524c2.7081.915,4.3555,3.3554,5.2579,6.914,1.16891,4.7784,2.0185,8.083,2.70891,9.40529h-4.78021c-.584-.96679-1.3819-3.915-2.3379-8.18549-1.0615-4.7276-3.0283-6.5069-7.2246-6.6592h-4.3555v14.84469h-4.623Zm4.623,15.5556h4.7275c4.9395,0,8.0752-2.59181,8.0752-6.50681,0-4.42279-3.3486-6.35449-8.2353-6.35449a20.21272,20.21272,0,0,0-4.5674.4063Z" transform="translate(-30.22325 -30.6581)"/>
    </g>
    <g>
      <path class="f" d="M134.21354,197.47259c-2.9722,1.8511-12.84039,5.3086-24.7285,5.3086-25.0845,0-43.4034-12.15729-43.4034-33.16259,0-21.0088,18.3189-33.167,44.5928-33.167a77.83313,77.83313,0,0,1,25.7969,4.293c-1.189,1.6655-2.0215,5.2739-2.4971,7.21768l-.7129.18512a35.46041,35.46041,0,0,0-22.5869-8.2378c-18.6655,0-32.9316,9.1636-32.9316,29.709,0,20.5429,14.2661,29.70509,32.9316,29.70509,11.294,0,19.6148-4.99809,24.1323-7.68119l.4756.3706Z" transform="translate(-30.22325 -30.6581)"/>
      <path class="f" d="M304.28144,172.4579c-4.3956.0933-8.90829.1856-13.3047.1856-4.1563,0-8.6709-.1856-12.8282-.1856l12.9473-23.51662Zm-11.5235-36.01662c-12.1162,21.85112-24.4707,43.46732-37.1777,65.19141a21.016,21.016,0,0,1,8.791,0c2.0185-5.8491,6.5312-15.31829,11.5205-24.88129,4.8691-.0923,9.6201-.18512,14.4912-.18512,5.2276,0,10.4541.09282,15.5606.18512,4.2773,8.2641,9.9775,18.47459,12.2353,24.88129a42.85976,42.85976,0,0,1,12.5899,0c-6.2959-9.93359-24.1123-43.71089-35.752-65.19141Z" transform="translate(-30.22325 -30.6581)"/>
      <path class="f" d="M148.54994,173.4745c0-5.59322-.332-11.2544-.665-16.8501a24.05056,24.05056,0,0,0,8.167,0c-.3335,5.5957-.6661,11.25688-.6661,16.8501v11.191c0,5.5952.3326,11.25678.6661,16.85a24.15966,24.15966,0,0,0-8.167,0c.333-5.59321.665-11.25479.665-16.85Z" transform="translate(-30.22325 -30.6581)"/>
      <path class="f" d="M183.24234,173.4638q0-6.7383-.2485-13.4756c-5.74169,0-13.149.2627-17.8082.7183a5.89444,5.89444,0,0,0,.4029-2.0757,6.08584,6.08584,0,0,0-.4029-2.0064c7.1558.19488,14.3121.3492,21.4761.3492,7.1612,0,14.3169-.15432,21.4741-.3492a6.10927,6.10927,0,0,0-.4013,2.0708,5.78679,5.78679,0,0,0,.4023,2.0113c-4.6611-.4556-12.0669-.7183-17.8091-.7183q-.25185,6.7398-.25,13.4756v11.1958c0,5.5962.333,11.25979.667,16.85589a24.15379,24.15379,0,0,0-8.166,0c.3316-5.5961.6636-11.25969.6636-16.85589Z" transform="translate(-30.22325 -30.6581)"/>
      <path class="f" d="M215.64174,156.6244a30.16562,30.16562,0,0,0,9.1533,0c4.8262,7.4175,10.0694,14.7691,15.8203,22.5108a212.938,212.938,0,0,0,15.7305-22.5108,15.25288,15.25288,0,0,0,6.4902,0c-10.5683,12.6875-16.5586,20.23388-20.1377,25.6983,0,6.3769.25,15.15919.6651,19.19279a24.15966,24.15966,0,0,0-8.167,0c.666-4.6186.666-11.51459.666-18.477C232.53434,178.5502,219.13684,160.7236,215.64174,156.6244Z" transform="translate(-30.22325 -30.6581)"/>
    </g>
    <g class="g">
      <g class="g">
        <path class="b" d="M245.39414,71.43049l11.80543,0s1.04891-.01873,1.04891-1.42977c.01873-1.44017-1.03954-1.50052-1.04891-1.5026L148.75409,68.498s-1.05827.00208-1.05827,1.50261c0,1.49948,1.05827,1.42976,1.05827,1.42976l12.10511-.00311c1.87826,0,2.64829,1.5151,1.02289,1.90636-9.03227,2.16649-13.65142,8.5484-14.43915,14.63479-.82415,6.35382,1.04265,11.68475,4.58584,15.17489a17.31055,17.31055,0,0,0,13.88138,5.82418,13.749,13.749,0,0,0,9.22582-3.56192c1.35692-1.20188-2.17066.20811-2.99584.31737a15.1492,15.1492,0,0,1-8.28825-.40167c-12.28305-3.3299-11.45889-22.3487-1.76585-23.82216-6.2331,2.59-7.27058,17.32889,4.59312,19.382a10.05524,10.05524,0,0,0,5.91468-.75442,7.07685,7.07685,0,0,0,3.93341-8.896c-1.00728,1.97607-4.85328,5.94382-9.6202,3.384-3.75442-2.01458-3.88865-8.60566.20605-11.29973,3.35276-2.205,10.03123-2.75858,14.35381,1.59628,1.5255,1.051,6.78668,10.40275-2.78046,18.21547-2.37045,1.93548-1.8845,3.129-1.96774,4.25287l0,30.70876a64.81718,64.81718,0,0,1,7.3049-3.922l0-27.83153s.02185-1.37357,2.12591-1.37357c2.11134,0,2.11134,1.37358,2.11134,1.37358l0,26.048q3.512-1.358,7.31947-2.42976l0-23.6182s-.06556-1.37357,2.04058-1.37357c2.10719,0,2.19875,1.37358,2.19875,1.37358l0,22.54535c2.39023-.54214,4.85017-.99584,7.36317-1.35692l0-21.18842s.153-1.37358,2.23-1.37357c2.07909,0,2.04266,1.37357,2.04266,1.37357l-.03123,20.6775q2.03538-.20134,4.11967-.31841,1.63111-.08742,3.24141-.12383l0-20.34035s.00833-1.29241,1.99688-1.2924c1.99689,0,2.2383,1.32363,2.2383,1.32363l0,20.307c2.48283.052,4.92092.204,7.308.44226l0-20.38509s11.54319,5.73781,21.03124-2.89177c3.65766-3.5307,4.9792-6.61084,5.72738-11.384A16.50126,16.50126,0,0,0,244.94045,73.7385c-3.20292-.89491-1.16025-2.35485.45369-2.308m-8.40793,25.42464a6.29209,6.29209,0,0,0,4.73153,1.47243,10.28835,10.28835,0,0,0,9.22374-8.99482c1.24143-8.60773-7.51716-12.9116-7.05723-12.793,12.87307,3.255,11.86888,18.69416,5.17272,24.42466a14.94937,14.94937,0,0,1-18.68888,1.47345c-1.45162-.97087-6.64413-5.973-2.78459-12.81691,2.41519-4.28929,8.92613-3.924,9.92821-3.20083-.47139-2.718-7.7024-7.24666-14.949-3.8325-3.33716,1.55047-8.79918,4.0333-11.42458,4.91052-8.67223,2.68262-12.819.64618-16.11343-1.64623-6.88242-5.29556-8.88242-6.14572-12.70449-6.68579-.02913-.00416,34.52657,0,34.52657,0s-8.03331,6.03748-6.45995,6.05725c.86369.00937,6.45995-2.80957,6.82415-3.0999,1.18419-.59626,12.6379-7.30386,21.82521-.36,9.19251,6.949,3.8158,15.63377-2.05,15.09162" transform="translate(-30.22325 -30.6581)"/>
      </g>
    </g>
  </g>
  <g>
    <path class="h" d="M145.85244,225.0082v23.56641H138.039V225.0082h-8.94776l.42041-6.09082h24.95215l.41992,6.09082Z" transform="translate(-30.22325 -30.6581)"/>
    <path class="h" d="M178.48672,248.57461V246.516h-.084a15.09919,15.09919,0,0,1-8.35987,2.60449c-6.51074,0-9.91357-3.36035-9.91357-9.87109v-20.332h7.81347v19.23926c0,3.36035,2.22657,4.70508,5.46094,4.70508a10.43442,10.43442,0,0,0,4.74707-1.17676V218.91738h7.813v29.65723Z" transform="translate(-30.22325 -30.6581)"/>
    <path class="h" d="M213.30508,248.57461H200.70254c-5.41943,0-6.67969-2.98242-6.67969-6.97363v-22.6836h7.81348v20.71c0,1.51171.50391,3.10839,2.68848,3.10839H213.725Z" transform="translate(-30.22325 -30.6581)"/>
    <path class="h" d="M238.79824,248.57461H226.1957c-5.41894,0-6.67968-2.98242-6.67968-6.97363v-22.6836h7.81347v20.71c0,1.51171.50391,3.10839,2.68848,3.10839h9.2002Z" transform="translate(-30.22325 -30.6581)"/>
    <path class="h" d="M263.87149,248.57461H251.68887c-5.41895,0-6.67871-2.98242-6.67871-6.97363v-22.6836H263.2416l.41992,5.83887H252.82363v5.54492h9.99707v5.6709h-9.99707v3.65528c0,1.51171.50391,3.10839,2.68848,3.10839h8.7793Z" transform="translate(-30.22325 -30.6581)"/>
  </g>
</svg>
