<svg xmlns="http://www.w3.org/2000/svg" viewBox="0 0 229.82 92.64"><defs><style>.cls-1{fill:#005397;}.cls-2{fill:#134094;}.cls-3{fill:#0097d9;}</style></defs><title>logo4</title><g id="Layer_2" data-name="Layer 2"><g id="Calque_1" data-name="Calque 1"><path class="cls-1" d="M.43,36.66s17.81-1.09,20.42-2.17l-.43,34.74s-.39,5.87,7.48,6c8.37.08,8.12-5.93,8.12-5.93V43s-.34-4.48-7-4.23v-2s14.55.08,19.54-2.2V42.1S56.41,35.16,64,34.91,78.57,40.15,78.74,47s0,23.44,0,23.44,0,4.82,7.28,4.73S93,70.78,93,70.78V10.55s.76-5.42-7-5.42V2.85s16.92-.09,19.54-2.29V42.1s9.14-7.53,17.6-6.6S135.93,41.76,136,47.85s0,22.25,0,22.25-.25,5.16,7.28,5.08c7.86-.09,7.1-4.49,7.1-4.49V43.37s-.17-4.15-6.93-4.23V37.36s15.73-.68,19.54-2.45v7.36s8.37-7.11,17.17-6.68,13.2,7.95,13.28,11.75,0,23.6,0,23.6-.34,4.32,7.7,4.24c0,0,6.94.93,7.53-3.9V42.86s-.68-3.72-7.11-3.81V36.94s16.42-.09,20.14-2.12V70.94s1.18,4.33,7.78,4.24v2H173.91v-2s6.85.25,6.85-4.06V48.78s.26-6.43-8.29-6.34-9.39,4.48-9.39,4.48V70.86s.93,4.32,6.69,4.32v2H116.56v-2s6.51.76,6.59-4.06,0-22,0-22,.43-6.94-8.37-6.94a12.19,12.19,0,0,0-9,4.15V70.52s-.25,4.74,6.69,4.66v2H59.29v-2s6.6.42,6.69-3.81,0-23.52,0-23.52-.17-5.92-8.29-5.92a12.31,12.31,0,0,0-9,4.06V69.93s-.6,5,6.59,5.25v2H.06v-2s7.7.33,8-4.91S8,42.86,8,42.86,7.6,38.21.41,39Z"/><path class="cls-1" d="M22,13.21a8.46,8.46,0,1,1-8.46-8.46A8.46,8.46,0,0,1,22,13.21Z"/><path class="cls-1" d="M223.19,13.94a8.46,8.46,0,1,1-8.46-8.46A8.46,8.46,0,0,1,223.19,13.94Z"/><path class="cls-2" d="M2.1,92.64A2.09,2.09,0,0,1,.57,92C0,91.44,0,90.79,0,89.66s0-1.77.57-2.35a2.12,2.12,0,0,1,1.53-.62,2,2,0,0,1,2.09,1.8h-.9a1.18,1.18,0,0,0-1.19-1,1.18,1.18,0,0,0-.86.35c-.29.31-.35.65-.35,1.82s.06,1.52.35,1.83a1.18,1.18,0,0,0,.86.35,1.2,1.2,0,0,0,1.2-1h.89A2,2,0,0,1,2.1,92.64Z"/><path class="cls-2" d="M13.74,92a2.09,2.09,0,0,1-1.55.63A2.06,2.06,0,0,1,10.66,92c-.58-.57-.57-1.22-.57-2.35s0-1.77.57-2.35a2.09,2.09,0,0,1,1.53-.62,2.12,2.12,0,0,1,1.55.62c.57.58.56,1.23.56,2.35S14.31,91.44,13.74,92Zm-.68-4.16a1.18,1.18,0,0,0-.87-.36,1.21,1.21,0,0,0-.87.36c-.28.31-.34.64-.34,1.81s.06,1.51.34,1.82a1.21,1.21,0,0,0,.87.36,1.18,1.18,0,0,0,.87-.36c.29-.31.35-.64.35-1.82S13.35,88.16,13.06,87.85Z"/><path class="cls-2" d="M24.13,92.59l-2.7-4.12v4.12h-.89V86.74h.82l2.7,4.11V86.74H25v5.85Z"/><path class="cls-2" d="M33,92.64a2.66,2.66,0,0,1-2.07-.77l.59-.59a1.91,1.91,0,0,0,1.49.56c.77,0,1.21-.33,1.21-.9a.76.76,0,0,0-.23-.6,1,1,0,0,0-.64-.25l-.69-.1a2,2,0,0,1-1.11-.47,1.44,1.44,0,0,1-.43-1.11,1.73,1.73,0,0,1,2-1.72,2.49,2.49,0,0,1,1.82.66l-.57.56A1.74,1.74,0,0,0,33,87.46c-.69,0-1.06.39-1.06.91a.69.69,0,0,0,.22.55,1.43,1.43,0,0,0,.66.27l.66.09a2,2,0,0,1,1.09.44,1.54,1.54,0,0,1,.48,1.2C35.06,92,34.18,92.64,33,92.64Z"/><path class="cls-2" d="M43.19,92.64a2,2,0,0,1-2.1-2V86.74H42v3.83a1.21,1.21,0,1,0,2.42,0V86.74h.89v3.88A2,2,0,0,1,43.19,92.64Z"/><path class="cls-2" d="M51.66,92.59V86.74h.89v5.05h2.82v.8Z"/><path class="cls-2" d="M62.63,87.53v5.06h-.89V87.53H60.13v-.79h4.11v.79Z"/><path class="cls-2" d="M73.05,92.59l-.41-1.18h-2.3l-.41,1.18H69l2.14-5.85h.72L74,92.59Zm-1.54-4.53-.91,2.6h1.8Z"/><path class="cls-2" d="M83.34,92.59l-2.7-4.12v4.12h-.89V86.74h.81l2.71,4.11V86.74h.89v5.85Z"/><path class="cls-2" d="M92.59,87.53v5.06h-.88V87.53H90.1v-.79h4.11v.79Z"/><path class="cls-2" d="M101.7,92.64a2.67,2.67,0,0,1-2.07-.77l.59-.59a1.93,1.93,0,0,0,1.49.56c.77,0,1.21-.33,1.21-.9a.76.76,0,0,0-.23-.6,1,1,0,0,0-.64-.25l-.69-.1a2,2,0,0,1-1.11-.47,1.44,1.44,0,0,1-.43-1.11,1.74,1.74,0,0,1,2-1.72,2.48,2.48,0,0,1,1.82.66l-.57.56a1.73,1.73,0,0,0-1.27-.45c-.69,0-1.07.39-1.07.91a.69.69,0,0,0,.22.55,1.43,1.43,0,0,0,.66.27l.66.09a2,2,0,0,1,1.09.44,1.5,1.5,0,0,1,.48,1.2C103.8,92,102.92,92.64,101.7,92.64Z"/><path class="cls-2" d="M120.61,92.59l-.48-.58a2.3,2.3,0,0,1-1.62.63,1.67,1.67,0,0,1-1.89-1.74,2,2,0,0,1,1.16-1.66,2,2,0,0,1-.61-1.25A1.41,1.41,0,0,1,120,88a1.24,1.24,0,0,1-.63,1l-.42.29,1.23,1.48a2,2,0,0,0,.31-1.18h.81a2.78,2.78,0,0,1-.59,1.8l1,1.17Zm-2.37-2.82c-.43.3-.79.57-.79,1.11a1,1,0,0,0,1.06,1,1.55,1.55,0,0,0,1.12-.45Zm.36-2.35A.55.55,0,0,0,118,88c0,.24.16.46.46.81l.28-.19a.77.77,0,0,0,.42-.61A.56.56,0,0,0,118.6,87.42Z"/><path class="cls-2" d="M135.54,87.53v1.79H138v.79h-2.44v2.48h-.88V86.74h3.73v.79Z"/><path class="cls-2" d="M147.66,92a2.2,2.2,0,0,1-3.08,0c-.57-.57-.57-1.22-.57-2.35s0-1.77.57-2.35a2.22,2.22,0,0,1,3.08,0c.58.58.56,1.23.56,2.35S148.24,91.44,147.66,92ZM147,87.85a1.21,1.21,0,0,0-.87-.36,1.18,1.18,0,0,0-.87.36c-.29.31-.35.64-.35,1.81s.06,1.51.35,1.82a1.18,1.18,0,0,0,.87.36,1.21,1.21,0,0,0,.87-.36c.29-.31.34-.64.34-1.82S147.28,88.16,147,87.85Z"/><path class="cls-2" d="M157.69,92.59l-1.23-2.47h-1.11v2.47h-.88V86.74h2.26a1.67,1.67,0,0,1,1.82,1.71A1.54,1.54,0,0,1,157.38,90l1.35,2.59Zm-1-5.06h-1.32v1.84h1.32a.92.92,0,1,0,0-1.84Z"/><path class="cls-2" d="M169.05,92.59V88.68l-1.35,2.85h-.65l-1.38-2.85v3.91h-.89V86.74h.89l1.7,3.64,1.68-3.64h.89v5.85Z"/><path class="cls-2" d="M179.75,92.59l-.4-1.18H177l-.4,1.18h-.95l2.14-5.85h.72l2.14,5.85Zm-1.54-4.53-.91,2.6h1.8Z"/><path class="cls-2" d="M187.94,87.53v5.06h-.89V87.53h-1.61v-.79h4.11v.79Z"/><path class="cls-2" d="M195.49,92.59V86.74h3.74v.79h-2.85v1.71h2.43V90h-2.43v1.76h2.85v.8Z"/><path class="cls-2" d="M207.38,92.64a2,2,0,0,1-2.09-2V86.74h.88v3.83a1.22,1.22,0,1,0,2.43,0V86.74h.89v3.88A2,2,0,0,1,207.38,92.64Z"/><path class="cls-2" d="M219.08,92.59l-1.23-2.47h-1.11v2.47h-.89V86.74h2.27a1.67,1.67,0,0,1,1.82,1.71A1.54,1.54,0,0,1,218.77,90l1.35,2.59Zm-1-5.06h-1.32v1.84h1.32a.92.92,0,1,0,0-1.84Z"/><path class="cls-2" d="M227.72,92.64a2.67,2.67,0,0,1-2.07-.77l.59-.59a1.94,1.94,0,0,0,1.5.56c.76,0,1.2-.33,1.2-.9a.76.76,0,0,0-.23-.6,1,1,0,0,0-.64-.25l-.69-.1a2,2,0,0,1-1.11-.47,1.44,1.44,0,0,1-.43-1.11,1.73,1.73,0,0,1,2-1.72,2.49,2.49,0,0,1,1.82.66l-.57.56a1.73,1.73,0,0,0-1.27-.45c-.69,0-1.07.39-1.07.91a.69.69,0,0,0,.22.55,1.43,1.43,0,0,0,.66.27l.66.09a2,2,0,0,1,1.09.44,1.5,1.5,0,0,1,.48,1.2C229.82,92,228.94,92.64,227.72,92.64Z"/><path class="cls-3" d="M2.1,92.64A2.09,2.09,0,0,1,.57,92C0,91.44,0,90.79,0,89.66s0-1.77.57-2.35a2.12,2.12,0,0,1,1.53-.62,2,2,0,0,1,2.09,1.8h-.9a1.18,1.18,0,0,0-1.19-1,1.18,1.18,0,0,0-.86.35c-.29.31-.35.65-.35,1.82s.06,1.52.35,1.83a1.18,1.18,0,0,0,.86.35,1.2,1.2,0,0,0,1.2-1h.89A2,2,0,0,1,2.1,92.64Z"/><path class="cls-3" d="M13.74,92a2.09,2.09,0,0,1-1.55.63A2.06,2.06,0,0,1,10.66,92c-.58-.57-.57-1.22-.57-2.35s0-1.77.57-2.35a2.09,2.09,0,0,1,1.53-.62,2.12,2.12,0,0,1,1.55.62c.57.58.56,1.23.56,2.35S14.31,91.44,13.74,92Zm-.68-4.16a1.18,1.18,0,0,0-.87-.36,1.21,1.21,0,0,0-.87.36c-.28.31-.34.64-.34,1.81s.06,1.51.34,1.82a1.21,1.21,0,0,0,.87.36,1.18,1.18,0,0,0,.87-.36c.29-.31.35-.64.35-1.82S13.35,88.16,13.06,87.85Z"/><path class="cls-3" d="M24.13,92.59l-2.7-4.12v4.12h-.89V86.74h.82l2.7,4.11V86.74H25v5.85Z"/><path class="cls-3" d="M33,92.64a2.66,2.66,0,0,1-2.07-.77l.59-.59a1.91,1.91,0,0,0,1.49.56c.77,0,1.21-.33,1.21-.9a.76.76,0,0,0-.23-.6,1,1,0,0,0-.64-.25l-.69-.1a2,2,0,0,1-1.11-.47,1.44,1.44,0,0,1-.43-1.11,1.73,1.73,0,0,1,2-1.72,2.49,2.49,0,0,1,1.82.66l-.57.56A1.74,1.74,0,0,0,33,87.46c-.69,0-1.06.39-1.06.91a.69.69,0,0,0,.22.55,1.43,1.43,0,0,0,.66.27l.66.09a2,2,0,0,1,1.09.44,1.54,1.54,0,0,1,.48,1.2C35.06,92,34.18,92.64,33,92.64Z"/><path class="cls-3" d="M43.19,92.64a2,2,0,0,1-2.1-2V86.74H42v3.83a1.21,1.21,0,1,0,2.42,0V86.74h.89v3.88A2,2,0,0,1,43.19,92.64Z"/><path class="cls-3" d="M51.66,92.59V86.74h.89v5.05h2.82v.8Z"/><path class="cls-3" d="M62.63,87.53v5.06h-.89V87.53H60.13v-.79h4.11v.79Z"/><path class="cls-3" d="M73.05,92.59l-.41-1.18h-2.3l-.41,1.18H69l2.14-5.85h.72L74,92.59Zm-1.54-4.53-.91,2.6h1.8Z"/><path class="cls-3" d="M83.34,92.59l-2.7-4.12v4.12h-.89V86.74h.81l2.71,4.11V86.74h.89v5.85Z"/><path class="cls-3" d="M92.59,87.53v5.06h-.88V87.53H90.1v-.79h4.11v.79Z"/><path class="cls-3" d="M101.7,92.64a2.67,2.67,0,0,1-2.07-.77l.59-.59a1.93,1.93,0,0,0,1.49.56c.77,0,1.21-.33,1.21-.9a.76.76,0,0,0-.23-.6,1,1,0,0,0-.64-.25l-.69-.1a2,2,0,0,1-1.11-.47,1.44,1.44,0,0,1-.43-1.11,1.74,1.74,0,0,1,2-1.72,2.48,2.48,0,0,1,1.82.66l-.57.56a1.73,1.73,0,0,0-1.27-.45c-.69,0-1.07.39-1.07.91a.69.69,0,0,0,.22.55,1.43,1.43,0,0,0,.66.27l.66.09a2,2,0,0,1,1.09.44,1.5,1.5,0,0,1,.48,1.2C103.8,92,102.92,92.64,101.7,92.64Z"/><path class="cls-3" d="M120.61,92.59l-.48-.58a2.3,2.3,0,0,1-1.62.63,1.67,1.67,0,0,1-1.89-1.74,2,2,0,0,1,1.16-1.66,2,2,0,0,1-.61-1.25A1.41,1.41,0,0,1,120,88a1.24,1.24,0,0,1-.63,1l-.42.29,1.23,1.48a2,2,0,0,0,.31-1.18h.81a2.78,2.78,0,0,1-.59,1.8l1,1.17Zm-2.37-2.82c-.43.3-.79.57-.79,1.11a1,1,0,0,0,1.06,1,1.55,1.55,0,0,0,1.12-.45Zm.36-2.35A.55.55,0,0,0,118,88c0,.24.16.46.46.81l.28-.19a.77.77,0,0,0,.42-.61A.56.56,0,0,0,118.6,87.42Z"/><path class="cls-3" d="M135.54,87.53v1.79H138v.79h-2.44v2.48h-.88V86.74h3.73v.79Z"/><path class="cls-3" d="M147.66,92a2.2,2.2,0,0,1-3.08,0c-.57-.57-.57-1.22-.57-2.35s0-1.77.57-2.35a2.22,2.22,0,0,1,3.08,0c.58.58.56,1.23.56,2.35S148.24,91.44,147.66,92ZM147,87.85a1.21,1.21,0,0,0-.87-.36,1.18,1.18,0,0,0-.87.36c-.29.31-.35.64-.35,1.81s.06,1.51.35,1.82a1.18,1.18,0,0,0,.87.36,1.21,1.21,0,0,0,.87-.36c.29-.31.34-.64.34-1.82S147.28,88.16,147,87.85Z"/><path class="cls-3" d="M157.69,92.59l-1.23-2.47h-1.11v2.47h-.88V86.74h2.26a1.67,1.67,0,0,1,1.82,1.71A1.54,1.54,0,0,1,157.38,90l1.35,2.59Zm-1-5.06h-1.32v1.84h1.32a.92.92,0,1,0,0-1.84Z"/><path class="cls-3" d="M169.05,92.59V88.68l-1.35,2.85h-.65l-1.38-2.85v3.91h-.89V86.74h.89l1.7,3.64,1.68-3.64h.89v5.85Z"/><path class="cls-3" d="M179.75,92.59l-.4-1.18H177l-.4,1.18h-.95l2.14-5.85h.72l2.14,5.85Zm-1.54-4.53-.91,2.6h1.8Z"/><path class="cls-3" d="M187.94,87.53v5.06h-.89V87.53h-1.61v-.79h4.11v.79Z"/><path class="cls-3" d="M195.49,92.59V86.74h3.74v.79h-2.85v1.71h2.43V90h-2.43v1.76h2.85v.8Z"/><path class="cls-3" d="M207.38,92.64a2,2,0,0,1-2.09-2V86.74h.88v3.83a1.22,1.22,0,1,0,2.43,0V86.74h.89v3.88A2,2,0,0,1,207.38,92.64Z"/><path class="cls-3" d="M219.08,92.59l-1.23-2.47h-1.11v2.47h-.89V86.74h2.27a1.67,1.67,0,0,1,1.82,1.71A1.54,1.54,0,0,1,218.77,90l1.35,2.59Zm-1-5.06h-1.32v1.84h1.32a.92.92,0,1,0,0-1.84Z"/><path class="cls-3" d="M227.72,92.64a2.67,2.67,0,0,1-2.07-.77l.59-.59a1.94,1.94,0,0,0,1.5.56c.76,0,1.2-.33,1.2-.9a.76.76,0,0,0-.23-.6,1,1,0,0,0-.64-.25l-.69-.1a2,2,0,0,1-1.11-.47,1.44,1.44,0,0,1-.43-1.11,1.73,1.73,0,0,1,2-1.72,2.49,2.49,0,0,1,1.82.66l-.57.56a1.73,1.73,0,0,0-1.27-.45c-.69,0-1.07.39-1.07.91a.69.69,0,0,0,.22.55,1.43,1.43,0,0,0,.66.27l.66.09a2,2,0,0,1,1.09.44,1.5,1.5,0,0,1,.48,1.2C229.82,92,228.94,92.64,227.72,92.64Z"/><path class="cls-2" d="M118.13,5.61H117v2.2h-1.14V2h2.27a1.8,1.8,0,0,1,1.93,1.83A1.8,1.8,0,0,1,118.13,5.61ZM118.07,3H117V4.59h1.07a.78.78,0,0,0,.85-.8A.78.78,0,0,0,118.07,3Z"/><path class="cls-2" d="M124.54,7.81l-1.15-2.33h-.82V7.81h-1.14V2h2.29a1.77,1.77,0,0,1,1.9,1.8,1.56,1.56,0,0,1-1.07,1.53l1.31,2.52ZM123.65,3h-1.08V4.53h1.08a.78.78,0,1,0,0-1.55Z"/><path class="cls-2" d="M130.76,7.22a2.11,2.11,0,0,1-1.58.64,2.14,2.14,0,0,1-1.59-.64C127,6.63,127,5.9,127,4.89s0-1.74.57-2.33a2.11,2.11,0,0,1,1.59-.65,2.09,2.09,0,0,1,1.58.65c.59.59.58,1.32.58,2.33S131.35,6.63,130.76,7.22Zm-.85-4a1,1,0,0,0-.73-.32,1,1,0,0,0-.74.32c-.22.24-.28.51-.28,1.64s.06,1.4.28,1.64a1,1,0,0,0,.74.31.94.94,0,0,0,.73-.31c.22-.24.29-.52.29-1.64S130.13,3.49,129.91,3.25Z"/><path class="cls-2" d="M135.19,5.61h-1.13v2.2h-1.14V2h2.27a1.81,1.81,0,0,1,1.93,1.83A1.81,1.81,0,0,1,135.19,5.61ZM135.13,3h-1.07V4.59h1.07a.78.78,0,0,0,.85-.8A.78.78,0,0,0,135.13,3Z"/><path class="cls-2" d="M141.59,7.81l-1.14-2.33h-.82V7.81h-1.14V2h2.29a1.78,1.78,0,0,1,1.9,1.8,1.56,1.56,0,0,1-1.07,1.53l1.31,2.52ZM140.71,3h-1.08V4.53h1.08a.78.78,0,1,0,0-1.55Z"/><path class="cls-2" d="M144.27,7.81V2h3.86V3h-2.71V4.35h2.3v1h-2.3V6.79h2.71v1Z"/><path class="cls-2" d="M151.89,3V7.81h-1.14V3h-1.53V2h4.2V3Z"/><path class="cls-2" d="M154.76,7.81V2h3.85V3H155.9V4.35h2.31v1H155.9V6.79h2.71v1Zm2.12-6.41h-.72l.53-1.4h1.12Z"/><path class="cls-3" d="M118.13,5.61H117v2.2h-1.14V2h2.27a1.8,1.8,0,0,1,1.93,1.83A1.8,1.8,0,0,1,118.13,5.61ZM118.07,3H117V4.59h1.07a.78.78,0,0,0,.85-.8A.78.78,0,0,0,118.07,3Z"/><path class="cls-3" d="M124.54,7.81l-1.15-2.33h-.82V7.81h-1.14V2h2.29a1.77,1.77,0,0,1,1.9,1.8,1.56,1.56,0,0,1-1.07,1.53l1.31,2.52ZM123.65,3h-1.08V4.53h1.08a.78.78,0,1,0,0-1.55Z"/><path class="cls-3" d="M130.76,7.22a2.11,2.11,0,0,1-1.58.64,2.14,2.14,0,0,1-1.59-.64C127,6.63,127,5.9,127,4.89s0-1.74.57-2.33a2.11,2.11,0,0,1,1.59-.65,2.09,2.09,0,0,1,1.58.65c.59.59.58,1.32.58,2.33S131.35,6.63,130.76,7.22Zm-.85-4a1,1,0,0,0-.73-.32,1,1,0,0,0-.74.32c-.22.24-.28.51-.28,1.64s.06,1.4.28,1.64a1,1,0,0,0,.74.31.94.94,0,0,0,.73-.31c.22-.24.29-.52.29-1.64S130.13,3.49,129.91,3.25Z"/><path class="cls-3" d="M135.19,5.61h-1.13v2.2h-1.14V2h2.27a1.81,1.81,0,0,1,1.93,1.83A1.81,1.81,0,0,1,135.19,5.61ZM135.13,3h-1.07V4.59h1.07a.78.78,0,0,0,.85-.8A.78.78,0,0,0,135.13,3Z"/><path class="cls-3" d="M141.59,7.81l-1.14-2.33h-.82V7.81h-1.14V2h2.29a1.78,1.78,0,0,1,1.9,1.8,1.56,1.56,0,0,1-1.07,1.53l1.31,2.52ZM140.71,3h-1.08V4.53h1.08a.78.78,0,1,0,0-1.55Z"/><path class="cls-3" d="M144.27,7.81V2h3.86V3h-2.71V4.35h2.3v1h-2.3V6.79h2.71v1Z"/><path class="cls-3" d="M151.89,3V7.81h-1.14V3h-1.53V2h4.2V3Z"/><path class="cls-3" d="M154.76,7.81V2h3.85V3H155.9V4.35h2.31v1H155.9V6.79h2.71v1Zm2.12-6.41h-.72l.53-1.4h1.12Z"/><path class="cls-2" d="M115.66,18.52V12.67h3.86v1H116.8v1.37h2.31v1H116.8V17.5h2.72v1Z"/><path class="cls-2" d="M124.5,18.52l-2.31-3.59v3.59H121V12.67h1l2.32,3.58V12.67h1.14v5.85Z"/><path class="cls-2" d="M129.43,18.52h-.86l-1.93-5.85h1.18L129,16.49l1.17-3.82h1.19Z"/><path class="cls-2" d="M132.48,18.52V12.67h1.14v5.85Z"/><path class="cls-2" d="M138.5,18.52l-1.14-2.33h-.82v2.33H135.4V12.67h2.29a1.77,1.77,0,0,1,1.9,1.79A1.58,1.58,0,0,1,138.52,16l1.31,2.52Zm-.88-4.83h-1.08v1.55h1.08a.78.78,0,1,0,0-1.55Z"/><path class="cls-2" d="M144.72,17.93a2.11,2.11,0,0,1-1.57.64,2.14,2.14,0,0,1-1.59-.64c-.59-.59-.57-1.32-.57-2.33s0-1.75.57-2.34a2.14,2.14,0,0,1,1.59-.64,2.11,2.11,0,0,1,1.57.64c.6.59.59,1.33.59,2.34S145.32,17.34,144.72,17.93Zm-.84-4a1,1,0,0,0-.73-.31,1,1,0,0,0-.74.31c-.22.25-.28.52-.28,1.65s.06,1.39.28,1.64a1,1,0,0,0,1.47,0c.22-.25.29-.52.29-1.64S144.1,14.2,143.88,14Z"/><path class="cls-2" d="M150.34,18.52,148,14.93v3.59h-1.14V12.67h1l2.32,3.58V12.67h1.14v5.85Z"/><path class="cls-2" d="M156.6,18.52l-2.32-3.59v3.59h-1.14V12.67h1l2.31,3.58V12.67h1.15v5.85Z"/><path class="cls-2" d="M159.39,18.52V12.67h3.86v1h-2.72v1.37h2.31v1h-2.31V17.5h2.72v1Z"/><path class="cls-2" d="M168.93,18.52V15.11l-1.12,2.22H167l-1.12-2.22v3.41h-1.15V12.67h1.13l1.53,3.17L169,12.67h1.12v5.85Z"/><path class="cls-2" d="M171.85,18.52V12.67h3.85v1H173v1.37h2.31v1H173V17.5h2.71v1Z"/><path class="cls-2" d="M180.69,18.52l-2.32-3.59v3.59h-1.14V12.67h1l2.32,3.58V12.67h1.14v5.85Z"/><path class="cls-2" d="M185.72,13.69v4.83h-1.14V13.69h-1.53v-1h4.2v1Z"/><path class="cls-3" d="M115.66,18.52V12.67h3.86v1H116.8v1.37h2.31v1H116.8V17.5h2.72v1Z"/><path class="cls-3" d="M124.5,18.52l-2.31-3.59v3.59H121V12.67h1l2.32,3.58V12.67h1.14v5.85Z"/><path class="cls-3" d="M129.43,18.52h-.86l-1.93-5.85h1.18L129,16.49l1.17-3.82h1.19Z"/><path class="cls-3" d="M132.48,18.52V12.67h1.14v5.85Z"/><path class="cls-3" d="M138.5,18.52l-1.14-2.33h-.82v2.33H135.4V12.67h2.29a1.77,1.77,0,0,1,1.9,1.79A1.58,1.58,0,0,1,138.52,16l1.31,2.52Zm-.88-4.83h-1.08v1.55h1.08a.78.78,0,1,0,0-1.55Z"/><path class="cls-3" d="M144.72,17.93a2.11,2.11,0,0,1-1.57.64,2.14,2.14,0,0,1-1.59-.64c-.59-.59-.57-1.32-.57-2.33s0-1.75.57-2.34a2.14,2.14,0,0,1,1.59-.64,2.11,2.11,0,0,1,1.57.64c.6.59.59,1.33.59,2.34S145.32,17.34,144.72,17.93Zm-.84-4a1,1,0,0,0-.73-.31,1,1,0,0,0-.74.31c-.22.25-.28.52-.28,1.65s.06,1.39.28,1.64a1,1,0,0,0,1.47,0c.22-.25.29-.52.29-1.64S144.1,14.2,143.88,14Z"/><path class="cls-3" d="M150.34,18.52,148,14.93v3.59h-1.14V12.67h1l2.32,3.58V12.67h1.14v5.85Z"/><path class="cls-3" d="M156.6,18.52l-2.32-3.59v3.59h-1.14V12.67h1l2.31,3.58V12.67h1.15v5.85Z"/><path class="cls-3" d="M159.39,18.52V12.67h3.86v1h-2.72v1.37h2.31v1h-2.31V17.5h2.72v1Z"/><path class="cls-3" d="M168.93,18.52V15.11l-1.12,2.22H167l-1.12-2.22v3.41h-1.15V12.67h1.13l1.53,3.17L169,12.67h1.12v5.85Z"/><path class="cls-3" d="M171.85,18.52V12.67h3.85v1H173v1.37h2.31v1H173V17.5h2.71v1Z"/><path class="cls-3" d="M180.69,18.52l-2.32-3.59v3.59h-1.14V12.67h1l2.32,3.58V12.67h1.14v5.85Z"/><path class="cls-3" d="M185.72,13.69v4.83h-1.14V13.69h-1.53v-1h4.2v1Z"/><path class="cls-2" d="M117.2,29.14a2.77,2.77,0,0,1-2.14-.77l.74-.74a1.91,1.91,0,0,0,1.41.49c.68,0,1-.25,1-.72a.68.68,0,0,0-.18-.5.91.91,0,0,0-.52-.2l-.7-.1a1.91,1.91,0,0,1-1.14-.49,1.52,1.52,0,0,1-.42-1.15,1.81,1.81,0,0,1,2-1.77,2.52,2.52,0,0,1,1.89.68l-.72.72a1.62,1.62,0,0,0-1.2-.41c-.61,0-.91.34-.91.74a.54.54,0,0,0,.18.42.93.93,0,0,0,.54.23l.69.1a2,2,0,0,1,1.12.45,1.66,1.66,0,0,1,.45,1.24C119.37,28.5,118.42,29.14,117.2,29.14Z"/><path class="cls-2" d="M120.86,29.09V23.24h3.85v1H122v1.37h2.31v1H122v1.42h2.71v1Z"/><path class="cls-2" d="M129.34,29.09l-1.14-2.33h-.82v2.33h-1.14V23.24h2.29a1.77,1.77,0,0,1,1.9,1.79,1.58,1.58,0,0,1-1.07,1.54l1.31,2.52Zm-.88-4.83h-1.08V25.8h1.08a.77.77,0,1,0,0-1.54Z"/><path class="cls-2" d="M134.15,29.09h-.85l-1.94-5.85h1.19l1.17,3.81,1.18-3.81h1.19Z"/><path class="cls-2" d="M137.21,29.09V23.24h1.14v5.85Z"/><path class="cls-2" d="M142.08,29.14a2.15,2.15,0,0,1-1.58-.64,1.78,1.78,0,0,1-.48-.88,8.83,8.83,0,0,1-.09-1.46,8.69,8.69,0,0,1,.09-1.45,1.74,1.74,0,0,1,.48-.88,2.15,2.15,0,0,1,1.58-.64A2.06,2.06,0,0,1,144.23,25h-1.16a1,1,0,0,0-1-.83.9.9,0,0,0-.73.3c-.24.26-.29.52-.29,1.65s.05,1.4.29,1.66a.9.9,0,0,0,.73.3,1,1,0,0,0,1-.83h1.16A2.07,2.07,0,0,1,142.08,29.14Z"/><path class="cls-2" d="M145.63,29.09V23.24h3.85v1h-2.71v1.37h2.31v1h-2.31v1.42h2.71v1Z"/><path class="cls-2" d="M152.62,29.14a2.77,2.77,0,0,1-2.14-.77l.74-.74a1.92,1.92,0,0,0,1.42.49c.67,0,1-.25,1-.72a.68.68,0,0,0-.18-.5.88.88,0,0,0-.52-.2l-.7-.1a2,2,0,0,1-1.14-.49,1.52,1.52,0,0,1-.42-1.15,1.81,1.81,0,0,1,2-1.77,2.52,2.52,0,0,1,1.89.68l-.72.72a1.6,1.6,0,0,0-1.2-.41c-.61,0-.9.34-.9.74a.53.53,0,0,0,.17.42.93.93,0,0,0,.54.23l.69.1a2,2,0,0,1,1.12.45,1.66,1.66,0,0,1,.45,1.24C154.79,28.5,153.85,29.14,152.62,29.14Z"/><path class="cls-2" d="M161.92,29.09l-.34-1H159.5l-.35,1H158l2.13-5.85h.9l2.13,5.85ZM160.56,25l-.74,2.13h1.45Z"/><path class="cls-2" d="M165.86,29.14a2.77,2.77,0,0,1-2.14-.77l.74-.74a1.92,1.92,0,0,0,1.42.49c.67,0,1-.25,1-.72a.68.68,0,0,0-.18-.5.94.94,0,0,0-.52-.2l-.71-.1a1.91,1.91,0,0,1-1.13-.49A1.52,1.52,0,0,1,164,25a1.8,1.8,0,0,1,2-1.77,2.52,2.52,0,0,1,1.89.68l-.72.72a1.62,1.62,0,0,0-1.2-.41c-.61,0-.91.34-.91.74a.54.54,0,0,0,.18.42.93.93,0,0,0,.54.23l.69.1a2,2,0,0,1,1.12.45,1.66,1.66,0,0,1,.45,1.24C168,28.5,167.08,29.14,165.86,29.14Z"/><path class="cls-2" d="M171.08,29.14a2.76,2.76,0,0,1-2.14-.77l.74-.74a1.91,1.91,0,0,0,1.41.49c.68,0,1-.25,1-.72a.68.68,0,0,0-.18-.5.94.94,0,0,0-.52-.2l-.71-.1a1.91,1.91,0,0,1-1.13-.49,1.52,1.52,0,0,1-.42-1.15,1.8,1.8,0,0,1,2-1.77,2.53,2.53,0,0,1,1.89.68l-.73.72a1.6,1.6,0,0,0-1.2-.41c-.6,0-.9.34-.9.74a.57.57,0,0,0,.17.42,1,1,0,0,0,.54.23l.7.1a1.94,1.94,0,0,1,1.11.45,1.62,1.62,0,0,1,.45,1.24C173.24,28.5,172.3,29.14,171.08,29.14Z"/><path class="cls-2" d="M178.27,28.5a2.11,2.11,0,0,1-1.57.64,2.14,2.14,0,0,1-1.59-.64c-.59-.59-.57-1.32-.57-2.34s0-1.74.57-2.33a2.14,2.14,0,0,1,1.59-.64,2.11,2.11,0,0,1,1.57.64c.6.59.59,1.32.59,2.33S178.87,27.91,178.27,28.5Zm-.84-4a1,1,0,0,0-1.47,0c-.23.25-.28.52-.28,1.64s0,1.4.28,1.65a1,1,0,0,0,1.47,0c.22-.25.28-.52.28-1.65S177.65,24.77,177.43,24.52Z"/><path class="cls-2" d="M182.39,29.14a2.15,2.15,0,0,1-1.58-.64,1.69,1.69,0,0,1-.47-.88,7.67,7.67,0,0,1-.1-1.46,7.55,7.55,0,0,1,.1-1.45,1.65,1.65,0,0,1,.47-.88,2.15,2.15,0,0,1,1.58-.64A2.05,2.05,0,0,1,184.54,25h-1.16a1,1,0,0,0-1-.83.91.91,0,0,0-.73.3c-.24.26-.29.52-.29,1.65s.05,1.4.29,1.66a.91.91,0,0,0,.73.3,1,1,0,0,0,1-.83h1.16A2.06,2.06,0,0,1,182.39,29.14Z"/><path class="cls-2" d="M185.94,29.09V23.24h1.14v5.85Z"/><path class="cls-2" d="M188.86,29.09V23.24h3.85v1H190v1.37h2.31v1H190v1.42h2.71v1ZM191,22.67h-.72l.53-1.39h1.12Z"/><path class="cls-2" d="M195.85,29.14a2.77,2.77,0,0,1-2.14-.77l.74-.74a1.92,1.92,0,0,0,1.42.49c.67,0,1-.25,1-.72a.68.68,0,0,0-.18-.5.94.94,0,0,0-.52-.2l-.7-.1a1.91,1.91,0,0,1-1.14-.49,1.52,1.52,0,0,1-.42-1.15,1.81,1.81,0,0,1,2-1.77,2.53,2.53,0,0,1,1.89.68l-.72.72a1.62,1.62,0,0,0-1.2-.41c-.61,0-.91.34-.91.74a.54.54,0,0,0,.18.42.93.93,0,0,0,.54.23l.69.1a2,2,0,0,1,1.12.45,1.66,1.66,0,0,1,.45,1.24C198,28.5,197.07,29.14,195.85,29.14Z"/><path class="cls-3" d="M117.2,29.14a2.77,2.77,0,0,1-2.14-.77l.74-.74a1.91,1.91,0,0,0,1.41.49c.68,0,1-.25,1-.72a.68.68,0,0,0-.18-.5.91.91,0,0,0-.52-.2l-.7-.1a1.91,1.91,0,0,1-1.14-.49,1.52,1.52,0,0,1-.42-1.15,1.81,1.81,0,0,1,2-1.77,2.52,2.52,0,0,1,1.89.68l-.72.72a1.62,1.62,0,0,0-1.2-.41c-.61,0-.91.34-.91.74a.54.54,0,0,0,.18.42.93.93,0,0,0,.54.23l.69.1a2,2,0,0,1,1.12.45,1.66,1.66,0,0,1,.45,1.24C119.37,28.5,118.42,29.14,117.2,29.14Z"/><path class="cls-3" d="M120.86,29.09V23.24h3.85v1H122v1.37h2.31v1H122v1.42h2.71v1Z"/><path class="cls-3" d="M129.34,29.09l-1.14-2.33h-.82v2.33h-1.14V23.24h2.29a1.77,1.77,0,0,1,1.9,1.79,1.58,1.58,0,0,1-1.07,1.54l1.31,2.52Zm-.88-4.83h-1.08V25.8h1.08a.77.77,0,1,0,0-1.54Z"/><path class="cls-3" d="M134.15,29.09h-.85l-1.94-5.85h1.19l1.17,3.81,1.18-3.81h1.19Z"/><path class="cls-3" d="M137.21,29.09V23.24h1.14v5.85Z"/><path class="cls-3" d="M142.08,29.14a2.15,2.15,0,0,1-1.58-.64,1.78,1.78,0,0,1-.48-.88,8.83,8.83,0,0,1-.09-1.46,8.69,8.69,0,0,1,.09-1.45,1.74,1.74,0,0,1,.48-.88,2.15,2.15,0,0,1,1.58-.64A2.06,2.06,0,0,1,144.23,25h-1.16a1,1,0,0,0-1-.83.9.9,0,0,0-.73.3c-.24.26-.29.52-.29,1.65s.05,1.4.29,1.66a.9.9,0,0,0,.73.3,1,1,0,0,0,1-.83h1.16A2.07,2.07,0,0,1,142.08,29.14Z"/><path class="cls-3" d="M145.63,29.09V23.24h3.85v1h-2.71v1.37h2.31v1h-2.31v1.42h2.71v1Z"/><path class="cls-3" d="M152.62,29.14a2.77,2.77,0,0,1-2.14-.77l.74-.74a1.92,1.92,0,0,0,1.42.49c.67,0,1-.25,1-.72a.68.68,0,0,0-.18-.5.88.88,0,0,0-.52-.2l-.7-.1a2,2,0,0,1-1.14-.49,1.52,1.52,0,0,1-.42-1.15,1.81,1.81,0,0,1,2-1.77,2.52,2.52,0,0,1,1.89.68l-.72.72a1.6,1.6,0,0,0-1.2-.41c-.61,0-.9.34-.9.74a.53.53,0,0,0,.17.42.93.93,0,0,0,.54.23l.69.1a2,2,0,0,1,1.12.45,1.66,1.66,0,0,1,.45,1.24C154.79,28.5,153.85,29.14,152.62,29.14Z"/><path class="cls-3" d="M161.92,29.09l-.34-1H159.5l-.35,1H158l2.13-5.85h.9l2.13,5.85ZM160.56,25l-.74,2.13h1.45Z"/><path class="cls-3" d="M165.86,29.14a2.77,2.77,0,0,1-2.14-.77l.74-.74a1.92,1.92,0,0,0,1.42.49c.67,0,1-.25,1-.72a.68.68,0,0,0-.18-.5.94.94,0,0,0-.52-.2l-.71-.1a1.91,1.91,0,0,1-1.13-.49A1.52,1.52,0,0,1,164,25a1.8,1.8,0,0,1,2-1.77,2.52,2.52,0,0,1,1.89.68l-.72.72a1.62,1.62,0,0,0-1.2-.41c-.61,0-.91.34-.91.74a.54.54,0,0,0,.18.42.93.93,0,0,0,.54.23l.69.1a2,2,0,0,1,1.12.45,1.66,1.66,0,0,1,.45,1.24C168,28.5,167.08,29.14,165.86,29.14Z"/><path class="cls-3" d="M171.08,29.14a2.76,2.76,0,0,1-2.14-.77l.74-.74a1.91,1.91,0,0,0,1.41.49c.68,0,1-.25,1-.72a.68.68,0,0,0-.18-.5.94.94,0,0,0-.52-.2l-.71-.1a1.91,1.91,0,0,1-1.13-.49,1.52,1.52,0,0,1-.42-1.15,1.8,1.8,0,0,1,2-1.77,2.53,2.53,0,0,1,1.89.68l-.73.72a1.6,1.6,0,0,0-1.2-.41c-.6,0-.9.34-.9.74a.57.57,0,0,0,.17.42,1,1,0,0,0,.54.23l.7.1a1.94,1.94,0,0,1,1.11.45,1.62,1.62,0,0,1,.45,1.24C173.24,28.5,172.3,29.14,171.08,29.14Z"/><path class="cls-3" d="M178.27,28.5a2.11,2.11,0,0,1-1.57.64,2.14,2.14,0,0,1-1.59-.64c-.59-.59-.57-1.32-.57-2.34s0-1.74.57-2.33a2.14,2.14,0,0,1,1.59-.64,2.11,2.11,0,0,1,1.57.64c.6.59.59,1.32.59,2.33S178.87,27.91,178.27,28.5Zm-.84-4a1,1,0,0,0-1.47,0c-.23.25-.28.52-.28,1.64s0,1.4.28,1.65a1,1,0,0,0,1.47,0c.22-.25.28-.52.28-1.65S177.65,24.77,177.43,24.52Z"/><path class="cls-3" d="M182.39,29.14a2.15,2.15,0,0,1-1.58-.64,1.69,1.69,0,0,1-.47-.88,7.67,7.67,0,0,1-.1-1.46,7.55,7.55,0,0,1,.1-1.45,1.65,1.65,0,0,1,.47-.88,2.15,2.15,0,0,1,1.58-.64A2.05,2.05,0,0,1,184.54,25h-1.16a1,1,0,0,0-1-.83.91.91,0,0,0-.73.3c-.24.26-.29.52-.29,1.65s.05,1.4.29,1.66a.91.91,0,0,0,.73.3,1,1,0,0,0,1-.83h1.16A2.06,2.06,0,0,1,182.39,29.14Z"/><path class="cls-3" d="M185.94,29.09V23.24h1.14v5.85Z"/><path class="cls-3" d="M188.86,29.09V23.24h3.85v1H190v1.37h2.31v1H190v1.42h2.71v1ZM191,22.67h-.72l.53-1.39h1.12Z"/><path class="cls-3" d="M195.85,29.14a2.77,2.77,0,0,1-2.14-.77l.74-.74a1.92,1.92,0,0,0,1.42.49c.67,0,1-.25,1-.72a.68.68,0,0,0-.18-.5.94.94,0,0,0-.52-.2l-.7-.1a1.91,1.91,0,0,1-1.14-.49,1.52,1.52,0,0,1-.42-1.15,1.81,1.81,0,0,1,2-1.77,2.53,2.53,0,0,1,1.89.68l-.72.72a1.62,1.62,0,0,0-1.2-.41c-.61,0-.91.34-.91.74a.54.54,0,0,0,.18.42.93.93,0,0,0,.54.23l.69.1a2,2,0,0,1,1.12.45,1.66,1.66,0,0,1,.45,1.24C198,28.5,197.07,29.14,195.85,29.14Z"/></g></g></svg>