<svg xmlns="http://www.w3.org/2000/svg" xmlns:xlink="http://www.w3.org/1999/xlink" viewBox="0 0 240.17 108.03"><defs><style>.cls-1{fill:url(#linear-gradient);}.cls-2{fill:url(#linear-gradient-2);}.cls-3{fill:url(#linear-gradient-3);}.cls-4{fill:url(#linear-gradient-4);}.cls-5{fill:url(#linear-gradient-5);}.cls-6{fill:url(#linear-gradient-6);}.cls-7{fill:url(#linear-gradient-7);}.cls-8{fill:url(#linear-gradient-8);}.cls-9{fill:url(#linear-gradient-9);}.cls-10{fill:url(#linear-gradient-10);}.cls-11{fill:url(#linear-gradient-11);}.cls-12{fill:url(#linear-gradient-12);}.cls-13{fill:url(#linear-gradient-13);}.cls-14{fill:url(#linear-gradient-14);}.cls-15{fill:url(#linear-gradient-15);}.cls-16{fill:url(#linear-gradient-16);}.cls-17{fill:url(#linear-gradient-17);}.cls-18{fill:url(#linear-gradient-18);}.cls-19{fill:url(#linear-gradient-19);}.cls-20{fill:url(#linear-gradient-20);}.cls-21{fill:url(#linear-gradient-21);}.cls-22{fill:url(#linear-gradient-22);}.cls-23{fill:url(#linear-gradient-23);}.cls-24{fill:url(#linear-gradient-24);}.cls-25{fill:#fff;}.cls-26{fill:#e5006d;}</style><linearGradient id="linear-gradient" x1="89.21" y1="-146.85" x2="297.73" y2="-321.82" gradientTransform="matrix(1, 0, 0, -1, 0, -113)" gradientUnits="userSpaceOnUse"><stop offset="0" stop-color="#0075be"/><stop offset="1" stop-color="#005185"/></linearGradient><linearGradient id="linear-gradient-2" x1="102.82" y1="-130" x2="311.56" y2="-305.16" xlink:href="#linear-gradient"/><linearGradient id="linear-gradient-3" x1="127.04" y1="-99.99" x2="335.83" y2="-275.19" xlink:href="#linear-gradient"/><linearGradient id="linear-gradient-4" x1="70.34" y1="-169.86" x2="279.13" y2="-345.06" xlink:href="#linear-gradient"/><linearGradient id="linear-gradient-5" x1="73.98" y1="-165.31" x2="283.08" y2="-340.77" xlink:href="#linear-gradient"/><linearGradient id="linear-gradient-6" x1="76.01" y1="-163.04" x2="283.98" y2="-337.54" xlink:href="#linear-gradient"/><linearGradient id="linear-gradient-7" x1="82.91" y1="-154.27" x2="291.68" y2="-329.45" xlink:href="#linear-gradient"/><linearGradient id="linear-gradient-8" x1="90.8" y1="-144.59" x2="299.53" y2="-319.74" xlink:href="#linear-gradient"/><linearGradient id="linear-gradient-9" x1="97.85" y1="-136.31" x2="305.82" y2="-310.82" xlink:href="#linear-gradient"/><linearGradient id="linear-gradient-10" x1="104.62" y1="-127.47" x2="313.39" y2="-302.64" xlink:href="#linear-gradient"/><linearGradient id="linear-gradient-11" x1="112.26" y1="-117.75" x2="321.37" y2="-293.21" xlink:href="#linear-gradient"/><linearGradient id="linear-gradient-12" x1="119.13" y1="-108.97" x2="328.61" y2="-284.74" xlink:href="#linear-gradient"/><linearGradient id="linear-gradient-13" x1="125.3" y1="-100.2" x2="335.63" y2="-276.68" xlink:href="#linear-gradient"/><linearGradient id="linear-gradient-14" x1="64.28" y1="-177.16" x2="273.4" y2="-352.64" xlink:href="#linear-gradient"/><linearGradient id="linear-gradient-15" x1="66.9" y1="-173.89" x2="276.01" y2="-349.35" xlink:href="#linear-gradient"/><linearGradient id="linear-gradient-16" x1="101.93" y1="-131.34" x2="311.08" y2="-306.84" xlink:href="#linear-gradient"/><linearGradient id="linear-gradient-17" x1="110.17" y1="-121.21" x2="319.27" y2="-296.66" xlink:href="#linear-gradient"/><linearGradient id="linear-gradient-18" x1="20.7" y1="-146.2" x2="18.55" y2="-170.86" gradientTransform="matrix(1, 0, 0, -1, 0, -113)" gradientUnits="userSpaceOnUse"><stop offset="0" stop-color="#f7a600"/><stop offset="1" stop-color="#bd8100"/></linearGradient><linearGradient id="linear-gradient-19" x1="46.46" y1="-156.25" x2="44.31" y2="-180.74" gradientTransform="matrix(1, 0, 0, -1, 0, -113)" gradientUnits="userSpaceOnUse"><stop offset="0" stop-color="#814984"/><stop offset="1" stop-color="#5b335d"/></linearGradient><linearGradient id="linear-gradient-20" x1="115.59" y1="-114.24" x2="324.32" y2="-289.38" xlink:href="#linear-gradient"/><linearGradient id="linear-gradient-21" x1="140.37" y1="-83.32" x2="349.49" y2="-258.78" xlink:href="#linear-gradient"/><linearGradient id="linear-gradient-22" x1="9.71" y1="-150.03" x2="7.91" y2="-170.65" gradientTransform="matrix(1, 0, 0, -1, 0, -113)" gradientUnits="userSpaceOnUse"><stop offset="0" stop-color="#94c11c"/><stop offset="1" stop-color="#719616"/></linearGradient><linearGradient id="linear-gradient-23" x1="33.04" y1="-169.19" x2="30.91" y2="-193.57" gradientTransform="matrix(1, 0, 0, -1, 0, -113)" gradientUnits="userSpaceOnUse"><stop offset="0" stop-color="#e5006d"/><stop offset="1" stop-color="#9f004b"/></linearGradient><linearGradient id="linear-gradient-24" x1="62.41" y1="-165.42" x2="58.3" y2="-212.41" xlink:href="#linear-gradient"/></defs><title>xx</title><g id="Layer_2" data-name="Layer 2"><g id="Layer_1-2" data-name="Layer 1"><g id="Layer_2-2" data-name="Layer 2"><g id="Calque_1" data-name="Calque 1"><path class="cls-1" d="M119.2,64h-4.58a.85.85,0,0,1-.72-.9V42c0-.32,0-.45-.14-.45s-.13.13-.22.27l-4.35,8.65a1.64,1.64,0,0,1-1.45.78h-4.58a1.64,1.64,0,0,1-1.45-.78l-4.4-8.65c-.08-.14-.18-.27-.22-.27S97,41.71,97,42V63.1a.84.84,0,0,1-.72.9H91.65a.7.7,0,0,1-.77-.61V32.15a1.82,1.82,0,0,1,1.81-1.81h3.72a1.89,1.89,0,0,1,1.67,1.09l6.85,13.86c.22.41.31.64.49.64s.28-.23.5-.64l6.85-13.86a1.9,1.9,0,0,1,1.71-1.09h3.71A1.82,1.82,0,0,1,120,32.15V63.33a.67.67,0,0,1-.68.68Z"/><path class="cls-2" d="M138.78,64.37c-7.48,0-12.92-4.17-12.92-14.14V44.12c0-10,5.44-14.14,12.92-14.14s12.91,4.17,12.91,14.14v6.11C151.69,60.2,146.25,64.37,138.78,64.37Zm6.57-20.25c0-6-2.13-8.66-6.57-8.66s-6.57,2.68-6.57,8.66v6.11c0,6,2.13,8.66,6.57,8.66s6.57-2.68,6.57-8.66Z"/><path class="cls-3" d="M200,64.37a78.4,78.4,0,0,1-8.93-.54,1.23,1.23,0,0,1-1.18-1.28.57.57,0,0,1,0-.13V31.93a1.22,1.22,0,0,1,1-1.41l.16,0A78.4,78.4,0,0,1,200,30c9.07,0,14.23,4.89,14.23,13.86V50.5C214.18,59.5,209,64.37,200,64.37Zm8-20.53c0-6.79-3.45-8.56-8-8.56-1.68,0-2.86.09-3.8.13V58.94c.94,0,2.12.13,3.8.13,4.53,0,8-1.77,8-8.57Z"/><path class="cls-4" d="M93.31,80.55a19.85,19.85,0,0,1-2.44-.15.32.32,0,0,1-.32-.34V71.7a.34.34,0,0,1,.3-.38h0a19.85,19.85,0,0,1,2.44-.15c2.47,0,3.88,1.34,3.88,3.78v1.82C97.19,79.21,95.78,80.55,93.31,80.55ZM95.48,75c0-1.85-.94-2.33-2.17-2.33h-1V79h1c1.23,0,2.17-.49,2.17-2.34Z"/><path class="cls-5" d="M104,80.38a12.34,12.34,0,0,1-2.35.17c-1.61,0-2.86-.43-2.86-2.53V73.71c0-2.11,1.25-2.54,2.86-2.54a12.34,12.34,0,0,1,2.35.17c.18,0,.24.09.24.26v.8a.24.24,0,0,1-.24.24h-2.52c-.72,0-1,.25-1,1.07V75h3.35a.26.26,0,0,1,.24.25v.89a.24.24,0,0,1-.24.24h-3.35V78c0,.81.26,1.06,1,1.06H104a.26.26,0,0,1,.24.25v.79C104.24,80.29,104.18,80.35,104,80.38Z"/><path class="cls-6" d="M114.55,84.29c-.72,0-1.82-.08-2.47-.12V91.4a.52.52,0,0,1-.49.55h-2.8a.55.55,0,0,1-.56-.54h0V72.35c0-.55.34-.74.89-.83a37.91,37.91,0,0,1,5.43-.36c4.26,0,8,1.5,8,6.4v.24C122.48,82.71,118.81,84.29,114.55,84.29Zm4.15-6.73c0-2.33-1.38-3.21-4.15-3.21-.58,0-2,.05-2.47.1v6.6c.45,0,2,.08,2.47.08,3,0,4.15-1.11,4.15-3.33Z"/><path class="cls-7" d="M140.19,92h-3.38c-.3,0-.41-.27-.55-.55l-4-7.39h-.39c-.71,0-1.82-.09-2.46-.11v7.5a.53.53,0,0,1-.51.55h-2.79a.55.55,0,0,1-.55-.55h0V72.35c0-.55.33-.74.88-.83a37.91,37.91,0,0,1,5.43-.36c4.27,0,8,1.52,8,6.26v.25a5.6,5.6,0,0,1-3.74,5.64l4.35,8.09a.45.45,0,0,1,0,.23.3.3,0,0,1-.28.32ZM136,77.42c0-2.08-1.39-3-4.16-3-.58,0-2,.06-2.46.11V80.8c.44,0,2,.08,2.46.08,2.85,0,4.16-.77,4.16-3.21Z"/><path class="cls-8" d="M150.48,92.17c-4.57,0-7.88-2.54-7.88-8.63V79.8c0-6.09,3.31-8.64,7.88-8.64s7.9,2.55,7.9,8.64v3.7C158.33,89.63,155,92.17,150.48,92.17Zm4-12.37c0-3.66-1.3-5.29-4-5.29s-4,1.63-4,5.29v3.7c0,3.65,1.3,5.28,4,5.28s4-1.63,4-5.28Z"/><path class="cls-9" d="M168.24,84.29c-.72,0-1.83-.08-2.47-.12V91.4a.52.52,0,0,1-.49.55h-2.8a.55.55,0,0,1-.55-.55h0V72.35c0-.55.33-.74.88-.83a37.91,37.91,0,0,1,5.43-.36c4.26,0,8,1.5,8,6.4v.24C176.22,82.71,172.48,84.29,168.24,84.29Zm4.15-6.73c0-2.33-1.38-3.21-4.15-3.21-.58,0-2,.05-2.47.1v6.6c.45,0,2,.08,2.47.08,3,0,4.15-1.11,4.15-3.33Z"/><path class="cls-10" d="M193.88,92h-3.4c-.31,0-.42-.27-.56-.55l-4-7.39h-.39c-.72,0-1.82-.09-2.46-.11v7.5a.53.53,0,0,1-.51.55h-2.78a.55.55,0,0,1-.56-.54h0V72.35c0-.55.33-.74.89-.83a37.86,37.86,0,0,1,5.42-.36c4.27,0,8,1.52,8,6.26v.25a5.6,5.6,0,0,1-3.74,5.64l4.35,8.09a.45.45,0,0,1,0,.23A.3.3,0,0,1,193.88,92Zm-4.15-14.53c0-2.08-1.39-3-4.16-3-.58,0-2,.06-2.46.11V80.8c.45,0,2,.08,2.46.08,2.86,0,4.16-.77,4.16-3.21Z"/><path class="cls-11" d="M208.3,91.79a26.51,26.51,0,0,1-5.26.38c-3.6,0-6.39-1-6.39-5.67V76.84c0-4.71,2.79-5.68,6.39-5.68a25.79,25.79,0,0,1,5.26.39c.42.06.56.19.56.58V73.9a.55.55,0,0,1-.55.55h-5.66c-1.6,0-2.18.56-2.18,2.39v3H208a.57.57,0,0,1,.55.55v2a.57.57,0,0,1-.55.55h-7.5V86.5c0,1.83.58,2.38,2.18,2.38h5.65a.56.56,0,0,1,.56.56v1.77C208.86,91.6,208.72,91.73,208.3,91.79Z"/><path class="cls-12" d="M225.31,74.59h-4.83V91.4a.55.55,0,0,1-.55.55h-2.74a.55.55,0,0,1-.56-.54h0V74.59h-4.84a.51.51,0,0,1-.56-.46V71.91a.54.54,0,0,1,.55-.53h13.55a.54.54,0,0,1,.55.53h0V74.1a.51.51,0,0,1-.53.49Z"/><path class="cls-13" d="M239.59,91.79a26.51,26.51,0,0,1-5.26.38c-3.6,0-6.4-1-6.4-5.67V76.84c0-4.71,2.8-5.68,6.4-5.68a25.79,25.79,0,0,1,5.26.39c.41.06.55.19.55.58V73.9a.55.55,0,0,1-.55.55h-5.65c-1.61,0-2.19.56-2.19,2.39v3h7.51a.55.55,0,0,1,.55.55h0v2a.55.55,0,0,1-.55.55h-7.51V86.5c0,1.83.58,2.38,2.19,2.38h5.65a.56.56,0,0,1,.55.56v1.77C240.14,91.6,240,91.73,239.59,91.79Zm-1.28-25.61-3.26,3.43c-.23.25-.34.36-.67.36H232c-.16,0-.25-.08-.25-.19a.43.43,0,0,1,.11-.28l2.62-3.32c.26-.31.36-.42.72-.42h2.91c.19,0,.31.08.31.19A.34.34,0,0,1,238.31,66.18Z"/><path class="cls-14" d="M95.48,91.89a13.29,13.29,0,0,1-2.09.17c-1.61,0-2.85-.43-2.85-2.53V83a.24.24,0,0,1,.23-.25H92a.25.25,0,0,1,.25.25V89.5c0,.82.25,1.06,1,1.06h2.23a.26.26,0,0,1,.26.25v.79C95.71,91.81,95.64,91.85,95.48,91.89Z"/><path class="cls-15" d="M103.48,92h-1.32a.27.27,0,0,1-.23-.2l-.57-2.35H98.48l-.57,2.35a.27.27,0,0,1-.23.2H96.37a.2.2,0,0,1-.22-.18v-.09l2-7.75a1.8,1.8,0,0,1,3.43,0l2,7.75v.07A.2.2,0,0,1,103.48,92Zm-3.34-7.64c0-.14-.08-.19-.2-.19s-.16.05-.2.19L98.85,88H101Z"/><path class="cls-16" d="M103.39,23.5a34.3,34.3,0,0,1-5.36.44c-4.1,0-7.29-1.1-7.29-6.47V.88a.63.63,0,0,1,.63-.63h3.11a.63.63,0,0,1,.63.63V17.5c0,2.08.63,2.72,2.46,2.72h5.81a.63.63,0,0,1,.63.63v2C104,23.28,103.86,23.4,103.39,23.5Z"/><path class="cls-17" d="M119.67,23.5a29.42,29.42,0,0,1-6,.44c-4.1,0-7.28-1.1-7.28-6.47V6.5c0-5.36,3.18-6.46,7.28-6.46a29.42,29.42,0,0,1,6,.44c.47.06.63.22.63.66v2a.63.63,0,0,1-.63.63h-6.44c-1.83,0-2.49.63-2.49,2.71V9.89h8.55a.63.63,0,0,1,.63.63h0v2.27a.63.63,0,0,1-.63.63h-8.55V17.5c0,2.08.66,2.72,2.49,2.72h6.44a.63.63,0,0,1,.63.63h0v2C120.3,23.28,120.14,23.43,119.67,23.5Z"/><path class="cls-18" d="M39.12,21.89a30.91,30.91,0,0,0-1.56-9.39l-7.17,2.37-8.21,2.74c.12,1.41.23,2.87.23,4.28C22.41,38.2,14.84,55,.14,66.54L2,67,16.09,70.4A73.8,73.8,0,0,0,31.7,50.73,60.21,60.21,0,0,0,39.12,21.89Z"/><path class="cls-19" d="M61.4,1.32l-11.55,4A72.38,72.38,0,0,1,52,22.66c0,22.59-10.53,44.12-29.7,60.91l16.22,5.2C58,70.13,68.62,46.93,68.62,22.64A79.69,79.69,0,0,0,65.18,0Z"/><path class="cls-20" d="M181.24,64h-4.58a2.46,2.46,0,0,1-2.77-1.62L163.83,40.31c-.13-.27-.26-.36-.4-.36s-.23.09-.23.36V63.1a.86.86,0,0,1-.82.9h-3.9a.9.9,0,0,1-.91-.89h0V32.15a1.82,1.82,0,0,1,1.81-1.81h4.9c.95,0,1.45.27,2,1.45l10.56,23.29c.09.23.23.37.36.37s.23-.14.23-.41V31.21a.83.83,0,0,1,.79-.87h4a.83.83,0,0,1,.86.8V62.21A1.81,1.81,0,0,1,181.24,64Z"/><path class="cls-21" d="M239.15,63.74a42.84,42.84,0,0,1-8.61.63c-5.9,0-10.47-1.58-10.47-9.29V39.27c0-7.71,4.57-9.29,10.47-9.29a42.84,42.84,0,0,1,8.61.63c.68.09.9.32.9,1V34.5a.9.9,0,0,1-.89.91H229.9c-2.63,0-3.58.91-3.58,3.9V44.2h12.29a.91.91,0,0,1,.9.91v3.26a.9.9,0,0,1-.9.9H226.32v5.85c0,3,1,3.9,3.58,3.9h9.25a.9.9,0,0,1,.9.9h0v2.9C240.05,63.42,239.83,63.65,239.15,63.74Z"/><path class="cls-22" d="M14.87,67.37.13,63.76A39.2,39.2,0,0,0,2.9,49.2,39.29,39.29,0,0,0,0,34.37l14.72-3.7a49.07,49.07,0,0,1,3.69,18.49A49,49,0,0,1,14.87,67.37Z"/><path class="cls-23" d="M38.48,88.77,22.26,83.55a70.57,70.57,0,0,0,8.42-33.13,68.22,68.22,0,0,0-8.5-32.81L37.56,12.5a78.64,78.64,0,0,1,9.83,37.9C47.39,63.44,44.92,76.86,38.48,88.77Z"/><path class="cls-24" d="M62.19,107.84l-15-5.71a100.43,100.43,0,0,0,11-24.3,92,92,0,0,0,3.89-26.47A93.58,93.58,0,0,0,49.85,5.3L65.18,0A104.61,104.61,0,0,1,78.81,51.36a102.93,102.93,0,0,1-4.33,29.43A111.36,111.36,0,0,1,62.19,107.84Z"/><polygon class="cls-25" points="70.17 36.89 69.56 46.42 60.02 47.03 69.56 47.64 70.17 57.17 70.78 47.64 80.31 47.03 70.78 46.42 70.17 36.89"/><polygon class="cls-25" points="35.53 30.33 35.06 37.8 27.58 38.28 35.06 38.76 35.53 46.22 36.01 38.76 43.48 38.28 36.01 37.8 35.53 30.33"/><polygon class="cls-25" points="59.88 1.84 59.11 13.8 47.16 14.57 59.11 15.34 59.88 27.29 60.64 15.34 72.6 14.57 60.64 13.8 59.88 1.84"/><path class="cls-26" d="M92.48,105.75a18.47,18.47,0,0,1-2.1-.11.28.28,0,0,1-.24-.29V97.5a.27.27,0,0,1,.24-.28,14.79,14.79,0,0,1,2.1-.12c2.12,0,3.47,1.09,3.47,3.57v1.55C96,104.64,94.63,105.75,92.48,105.75Zm2.43-5.12c0-2.08-1.06-2.68-2.43-2.68H91.2v6.84h1.28c1.37,0,2.43-.61,2.43-2.67Z"/><path class="cls-26" d="M104.64,102.83H100.8V103c0,1.37.54,1.88,1.59,1.88a14.82,14.82,0,0,0,2-.13h.09c.1,0,.19.05.19.16v.39c0,.15,0,.23-.23.26a10.2,10.2,0,0,1-2.06.2c-1.32,0-2.6-.62-2.6-2.76v-1a2.4,2.4,0,0,1,2.1-2.67,2.26,2.26,0,0,1,.45,0,2.38,2.38,0,0,1,2.54,2.19,2.64,2.64,0,0,1,0,.49v.62A.2.2,0,0,1,104.64,102.83Zm-.8-.87c0-1.3-.49-1.8-1.5-1.8s-1.54.56-1.54,1.8v.1h3Z"/><path class="cls-26" d="M110.66,105.75a8.48,8.48,0,0,1-1.81-.17.23.23,0,0,1-.25-.23V105a.18.18,0,0,1,.2-.18h0c.55.07,1.39.13,1.8.13.75,0,1.14-.2,1.14-.82,0-.34-.21-.56-.86-1l-1.16-.69a2,2,0,0,1-1.18-1.64c0-1.19.9-1.52,2.08-1.52a10.72,10.72,0,0,1,1.79.15.2.2,0,0,1,.22.22V100a.18.18,0,0,1-.16.2h0c-.41,0-1.14-.09-1.79-.09s-1.06.08-1.06.66c0,.35.26.56.79.88l1.13.67c1,.56,1.27,1.06,1.27,1.73C112.81,105.25,112,105.75,110.66,105.75Z"/><path class="cls-26" d="M126.31,105.67h-.53a.24.24,0,0,1-.22-.23v-.25a3.49,3.49,0,0,1-1.77.56,1.67,1.67,0,0,1-1.87-1.44,1.48,1.48,0,0,1,0-.42v-.14c0-1.24.72-1.86,2.76-1.86h.85v-.46c0-1-.33-1.29-1.22-1.29a17.14,17.14,0,0,0-1.76.09h-.07c-.1,0-.21,0-.21-.18v-.4c0-.14.08-.2.24-.22a9,9,0,0,1,1.79-.15c1.59,0,2.23.8,2.23,2.15v4a.23.23,0,0,1-.22.24Zm-.78-3.06h-.85c-1.38,0-1.75.31-1.75,1.13v.14c0,.82.39,1,1,1a3.15,3.15,0,0,0,1.55-.46Z"/><path class="cls-26" d="M134.35,105.62a8.54,8.54,0,0,1-1.43.13c-1.56,0-2.44-1.1-2.44-2.79v-.9c0-1.68.87-2.78,2.44-2.78a8.54,8.54,0,0,1,1.43.12c.19,0,.23.09.23.25v.42a.17.17,0,0,1-.17.17h0a11.27,11.27,0,0,0-1.42-.08c-.92,0-1.44.61-1.44,1.9v.9c0,1.28.51,1.91,1.44,1.91a13.52,13.52,0,0,0,1.42-.08h0a.18.18,0,0,1,.19.15v.43C134.58,105.5,134.54,105.59,134.35,105.62Z"/><path class="cls-26" d="M141.59,105.69a4.74,4.74,0,0,1-.75.06c-1.06,0-1.56-.27-1.56-1.54v-4l-1.11-.13a.21.21,0,0,1-.22-.2h0v-.31a.18.18,0,0,1,.18-.2h1.15V98.23a.23.23,0,0,1,.21-.23l.6-.09h0a.17.17,0,0,1,.17.19h0v1.25h1.24a.23.23,0,0,1,.23.23V100a.23.23,0,0,1-.23.23h-1.24v4c0,.63.16.73.62.73h.65c.15,0,.24,0,.24.16v.4C141.8,105.6,141.74,105.67,141.59,105.69Z"/><path class="cls-26" d="M150.09,102.83h-3.85V103c0,1.37.54,1.88,1.6,1.88a14.82,14.82,0,0,0,2-.13h.06a.16.16,0,0,1,.18.14v.41c0,.15,0,.23-.23.26a10.36,10.36,0,0,1-2,.2c-1.32,0-2.61-.62-2.61-2.76v-1a2.4,2.4,0,0,1,2.1-2.67,2.26,2.26,0,0,1,.45,0,2.37,2.37,0,0,1,2.54,2.18,2.09,2.09,0,0,1,0,.5v.62a.22.22,0,0,1-.22.22Zm-.81-.87c0-1.3-.49-1.8-1.5-1.8s-1.54.56-1.54,1.8v.1h3Z"/><path class="cls-26" d="M158.87,105.67h-.57a.22.22,0,0,1-.22-.22h0v-.22a3.36,3.36,0,0,1-1.82.53c-1.38,0-2-.86-2-2.39V99.59a.22.22,0,0,1,.21-.23H155a.23.23,0,0,1,.23.23v3.77c0,1.16.39,1.52,1.26,1.52a3.7,3.7,0,0,0,1.55-.45V99.59a.23.23,0,0,1,.23-.23h.56a.24.24,0,0,1,.22.23v5.85a.22.22,0,0,1-.21.23Z"/><path class="cls-26" d="M165.82,100.15a3.05,3.05,0,0,0-1.58.48v4.81a.24.24,0,0,1-.24.23h-.52a.23.23,0,0,1-.21-.23V99.59a.22.22,0,0,1,.21-.23H164a.22.22,0,0,1,.22.22h0v.23a2.86,2.86,0,0,1,1.62-.54c.16,0,.24.06.24.2V100A.26.26,0,0,1,165.82,100.15Z"/><path class="cls-26" d="M171.57,105.75a8.48,8.48,0,0,1-1.81-.17.22.22,0,0,1-.24-.23V105a.18.18,0,0,1,.2-.18h0c.55.07,1.39.13,1.8.13.75,0,1.14-.2,1.14-.82,0-.34-.21-.56-.86-1l-1.16-.69a2,2,0,0,1-1.17-1.59c0-1.19.9-1.52,2.08-1.52a10.72,10.72,0,0,1,1.79.15.2.2,0,0,1,.22.22V100a.18.18,0,0,1-.16.2h0c-.4,0-1.14-.09-1.78-.09s-1.07.08-1.07.66c0,.35.26.56.79.88l1.14.67c1,.56,1.26,1.06,1.26,1.73C173.72,105.25,172.86,105.75,171.57,105.75Z"/><path class="cls-26" d="M187.71,102.83h-3.85V103c0,1.37.54,1.88,1.6,1.88a14.82,14.82,0,0,0,2-.13h.06a.16.16,0,0,1,.18.14v.41c0,.15,0,.23-.22.26a10.2,10.2,0,0,1-2.06.2c-1.32,0-2.61-.62-2.61-2.76v-1a2.4,2.4,0,0,1,2.1-2.67,2.26,2.26,0,0,1,.45,0,2.38,2.38,0,0,1,2.54,2.2,1.93,1.93,0,0,1,0,.48v.62C187.93,102.73,187.85,102.83,187.71,102.83Zm-.8-.87c0-1.3-.5-1.8-1.51-1.8s-1.54.56-1.54,1.8v.1h3Z"/><path class="cls-26" d="M196.48,105.67h-.55a.23.23,0,0,1-.23-.23v-3.78c0-1.16-.39-1.51-1.26-1.51a3.69,3.69,0,0,0-1.55.44v4.85a.26.26,0,0,1-.23.23h-.56a.24.24,0,0,1-.22-.23V99.59a.22.22,0,0,1,.21-.23h.58a.22.22,0,0,1,.22.22h0v.21a3.47,3.47,0,0,1,1.83-.52c1.37,0,2,.86,2,2.38v3.78a.23.23,0,0,1-.23.23Z"/><path class="cls-26" d="M205.86,100.13l-.41.08a1.55,1.55,0,0,1,.39,1.18v.11c0,1.26-.78,2-2.55,2a3.19,3.19,0,0,1-1.33-.23.41.41,0,0,0-.28.39c0,.2.09.3.35.37l1.71.44c1.13.28,2.2.6,2.2,1.68v.09c0,1.11-.73,1.79-2.61,1.79s-2.64-.7-2.64-1.83v-.1a1.84,1.84,0,0,1,.73-1.46h-.09a.92.92,0,0,1-.52-.89h0a.94.94,0,0,1,.46-.83,1.71,1.71,0,0,1-.52-1.33v-.09c0-1,.57-2,2.54-2h2.52a.27.27,0,0,1,.27.25V100S206,100.1,205.86,100.13Zm-.92,6c0-.44-.37-.63-1.4-.89l-1.3-.33a1.33,1.33,0,0,0-.56,1.17v.1c0,.64.38,1,1.65,1s1.61-.37,1.61-1Zm-.1-4.7c0-.69-.3-1.23-1.55-1.23s-1.55.59-1.55,1.23v.07c0,.51.23,1.17,1.55,1.17s1.55-.48,1.55-1.17Z"/><path class="cls-26" d="M214,105.67h-.53a.23.23,0,0,1-.23-.23v-.25a3.45,3.45,0,0,1-1.76.56,1.69,1.69,0,0,1-1.88-1.46,1.78,1.78,0,0,1,0-.4v-.14c0-1.24.73-1.86,2.77-1.86h.85v-.46c0-1-.34-1.29-1.23-1.29a17.14,17.14,0,0,0-1.76.09h0c-.11,0-.21,0-.21-.18v-.4c0-.14.08-.2.24-.22a8.86,8.86,0,0,1,1.78-.15c1.59,0,2.24.8,2.24,2.15v4a.24.24,0,0,1-.24.24Zm-.78-3.06h-.85c-1.39,0-1.76.31-1.76,1.13v.14c0,.82.39,1,1.06,1a3.25,3.25,0,0,0,1.55-.46Z"/><path class="cls-26" d="M223.39,100.13l-.41.08a1.55,1.55,0,0,1,.39,1.18v.11c0,1.26-.78,2-2.55,2a3.19,3.19,0,0,1-1.33-.23.41.41,0,0,0-.29.39c0,.2.09.3.36.37l1.71.44c1.12.28,2.2.6,2.2,1.68v.09c0,1.11-.73,1.79-2.62,1.79s-2.64-.7-2.64-1.83v-.1a1.87,1.87,0,0,1,.73-1.46h-.09a.94.94,0,0,1-.52-.89h0a1,1,0,0,1,.47-.83,1.7,1.7,0,0,1-.53-1.33v-.09c0-1,.58-2,2.55-2h2.52a.26.26,0,0,1,.26.25V100S223.48,100.1,223.39,100.13Zm-.93,6c0-.44-.37-.63-1.4-.89l-1.3-.33a1.37,1.37,0,0,0-.56,1.17v.1c0,.64.38,1,1.65,1s1.61-.37,1.61-1Zm-.09-4.7c0-.69-.31-1.23-1.55-1.23s-1.55.59-1.55,1.23v.07c0,.51.23,1.17,1.55,1.17s1.55-.48,1.55-1.17Z"/><path class="cls-26" d="M232,102.83h-3.85V103c0,1.37.54,1.88,1.6,1.88a14.82,14.82,0,0,0,2-.13h.06a.16.16,0,0,1,.18.14v.41c0,.15,0,.23-.23.26a10,10,0,0,1-2.05.2c-1.33,0-2.61-.62-2.61-2.76v-1a2.4,2.4,0,0,1,2.1-2.67,2.26,2.26,0,0,1,.45,0,2.36,2.36,0,0,1,2.53,2.19,2,2,0,0,1,0,.49v.62A.16.16,0,0,1,232,102.83Zm-.81-.87c0-1.3-.49-1.8-1.5-1.8s-1.54.56-1.54,1.8v.1h3Zm.31-5.06-1.29,1.45c-.11.11-.15.17-.27.17h-.62c-.07,0-.1,0-.1-.08a.24.24,0,0,1,0-.12l1.13-1.42c.1-.13.13-.17.28-.17h.83c.08,0,.13,0,.13.08a.14.14,0,0,1-.13.09Z"/><path class="cls-26" d="M238,105.75a8.48,8.48,0,0,1-1.81-.17.22.22,0,0,1-.24-.23V105a.18.18,0,0,1,.2-.18h0c.56.07,1.39.13,1.8.13.75,0,1.14-.2,1.14-.82,0-.34-.2-.56-.86-1l-1.16-.69a2,2,0,0,1-1.17-1.64c0-1.19.9-1.52,2.08-1.52a10.72,10.72,0,0,1,1.79.15.2.2,0,0,1,.22.22V100a.18.18,0,0,1-.16.2h0c-.4,0-1.14-.09-1.78-.09s-1.07.08-1.07.66c0,.35.27.56.79.88l1.14.67c1,.56,1.26,1.06,1.26,1.73C240.18,105.25,239.32,105.75,238,105.75Z"/></g></g></g></g></svg>